<svg width="40" height="40" viewBox="0 0 40 40" fill="none" xmlns="http://www.w3.org/2000/svg">
<path fill-rule="evenodd" clip-rule="evenodd" d="M20 40C31.0457 40 40 31.0457 40 20C40 8.95432 31.0457 0 20 0C8.95432 0 0 8.95432 0 20C0 31.0457 8.95432 40 20 40ZM20.731 19.683L29.6764 13.476C29.3739 13.066 28.8873 12.8 28.3386 12.8H11.6614C11.1334 12.8 10.663 13.0462 10.3587 13.4301L19.0352 19.6688C19.5405 20.0321 20.2198 20.0378 20.731 19.683ZM30 25.4684V15.0514L21.3867 21.028C20.4753 21.6604 19.2644 21.6502 18.3638 21.0026L10 14.9888V25.4684C10 26.3859 10.7438 27.1297 11.6614 27.1297H28.3386C29.2562 27.1297 30 26.3859 30 25.4684Z" fill="#AE0620"/>
</svg>
