<svg width="40" height="40" viewBox="0 0 40 40" fill="none" xmlns="http://www.w3.org/2000/svg">
<circle cx="20" cy="20" r="20" fill="#AE0620"/>
<path d="M24.1163 23.4608L23.5679 24.038C23.5679 24.038 22.2646 25.4102 18.7071 21.6648C15.1496 17.9194 16.4529 16.5473 16.4529 16.5473L16.7982 16.1837C17.6488 15.2882 17.729 13.8504 16.9868 12.8008L15.4688 10.6537C14.5503 9.35453 12.7753 9.18292 11.7225 10.2913L9.83291 12.2808C9.31088 12.8304 8.96105 13.5428 9.00348 14.3332C9.11201 16.3551 9.976 20.7055 14.7972 25.7813C19.9097 31.1639 24.7069 31.3778 26.6686 31.1842C27.2891 31.123 27.8287 30.7884 28.2635 30.3305L29.9738 28.5301C31.1282 27.3147 30.8026 25.231 29.3256 24.3809L27.0256 23.057C26.0557 22.4988 24.8742 22.6627 24.1163 23.4608Z" fill="#FFFAFA"/>
</svg>
