<svg width="40" height="40" viewBox="0 0 40 40" fill="none" xmlns="http://www.w3.org/2000/svg">
<path fill-rule="evenodd" clip-rule="evenodd" d="M20 40C31.0456 40 40 31.0456 40 20C40 8.9544 31.0456 0 20 0C8.9544 0 0 8.9544 0 20C0 31.0456 8.9544 40 20 40ZM28.7908 12.7776C28.9452 11.0256 27.0948 11.7472 27.0948 11.7472C25.7288 12.3128 24.32 12.8872 22.896 13.468C18.48 15.2692 13.9184 17.13 10.0324 18.9616C7.9252 19.7344 9.1588 20.5072 9.1588 20.5072L12.4992 21.538C14.0412 22.002 14.8632 21.4864 14.8632 21.4864L22.0584 16.5912C24.628 14.8392 24.0112 16.282 23.3944 16.9004L17.9984 22.0532C17.176 22.7748 17.5872 23.3932 17.9468 23.7024C18.9668 24.602 21.4748 26.248 22.5696 26.9664C22.8544 27.1532 23.0436 27.2776 23.0864 27.3096C23.3432 27.5156 24.7308 28.4432 25.656 28.2372C26.5812 28.0308 26.684 26.8456 26.684 26.8456L27.9172 18.7552C28.102 17.3508 28.3144 16.0008 28.484 14.9224C28.644 13.904 28.766 13.1284 28.7908 12.7776Z" fill="#AE0620"/>
</svg>
