<svg width="30" height="35" viewBox="0 0 30 35" fill="none" xmlns="http://www.w3.org/2000/svg">
<mask id="path-1-inside-1_2332_51" fill="white">
<path d="M15 18C16.9891 18 18.8968 17.2098 20.3033 15.8033C21.7098 14.3968 22.5 12.4891 22.5 10.5C22.5 8.51088 21.7098 6.60322 20.3033 5.1967C18.8968 3.79018 16.9891 3 15 3C13.0109 3 11.1032 3.79018 9.6967 5.1967C8.29018 6.60322 7.5 8.51088 7.5 10.5C7.5 12.4891 8.29018 14.3968 9.6967 15.8033C11.1032 17.2098 13.0109 18 15 18ZM15 20.5C12.3478 20.5 9.8043 19.4464 7.92893 17.5711C6.05357 15.6957 5 13.1522 5 10.5C5 7.84784 6.05357 5.3043 7.92893 3.42893C9.8043 1.55357 12.3478 0.5 15 0.5C17.6522 0.5 20.1957 1.55357 22.0711 3.42893C23.9464 5.3043 25 7.84784 25 10.5C25 13.1522 23.9464 15.6957 22.0711 17.5711C20.1957 19.4464 17.6522 20.5 15 20.5ZM27.5 33V29.25C27.5 28.2554 27.1049 27.3016 26.4017 26.5983C25.6984 25.8951 24.7446 25.5 23.75 25.5H6.25C5.25544 25.5 4.30161 25.8951 3.59835 26.5983C2.89509 27.3016 2.5 28.2554 2.5 29.25V33C2.5 33.3315 2.3683 33.6495 2.13388 33.8839C1.89946 34.1183 1.58152 34.25 1.25 34.25C0.918479 34.25 0.600537 34.1183 0.366117 33.8839C0.131696 33.6495 0 33.3315 0 33V29.25C0 27.5924 0.65848 26.0027 1.83058 24.8306C3.00269 23.6585 4.5924 23 6.25 23H23.75C25.4076 23 26.9973 23.6585 28.1694 24.8306C29.3415 26.0027 30 27.5924 30 29.25V33C30 33.3315 29.8683 33.6495 29.6339 33.8839C29.3995 34.1183 29.0815 34.25 28.75 34.25C28.4185 34.25 28.1005 34.1183 27.8661 33.8839C27.6317 33.6495 27.5 33.3315 27.5 33Z"/>
</mask>
<path d="M15 18V21V18ZM15 3V0V3ZM15 20.5V23.5V20.5ZM5 10.5H2H5ZM15 0.5V-2.5V0.5ZM25 10.5H28H25ZM27.5 29.25H30.5H27.5ZM15 18V21C17.7848 21 20.4555 19.8938 22.4246 17.9246L20.3033 15.8033L18.182 13.682C17.3381 14.5259 16.1935 15 15 15V18ZM20.3033 15.8033L22.4246 17.9246C24.3938 15.9555 25.5 13.2848 25.5 10.5H22.5H19.5C19.5 11.6935 19.0259 12.8381 18.182 13.682L20.3033 15.8033ZM22.5 10.5H25.5C25.5 7.71523 24.3938 5.04451 22.4246 3.07538L20.3033 5.1967L18.182 7.31802C19.0259 8.16193 19.5 9.30652 19.5 10.5H22.5ZM20.3033 5.1967L22.4246 3.07538C20.4555 1.10625 17.7848 0 15 0V3V6C16.1935 6 17.3381 6.47411 18.182 7.31802L20.3033 5.1967ZM15 3V0C12.2152 0 9.54451 1.10625 7.57538 3.07538L9.6967 5.1967L11.818 7.31802C12.6619 6.47411 13.8065 6 15 6V3ZM9.6967 5.1967L7.57538 3.07538C5.60625 5.04451 4.5 7.71523 4.5 10.5H7.5H10.5C10.5 9.30653 10.9741 8.16193 11.818 7.31802L9.6967 5.1967ZM7.5 10.5H4.5C4.5 13.2848 5.60625 15.9555 7.57538 17.9246L9.6967 15.8033L11.818 13.682C10.9741 12.8381 10.5 11.6935 10.5 10.5H7.5ZM9.6967 15.8033L7.57538 17.9246C9.54451 19.8938 12.2152 21 15 21V18V15C13.8065 15 12.6619 14.5259 11.818 13.682L9.6967 15.8033ZM15 20.5V17.5C13.1435 17.5 11.363 16.7625 10.0503 15.4497L7.92893 17.5711L5.80761 19.6924C8.24558 22.1304 11.5522 23.5 15 23.5V20.5ZM7.92893 17.5711L10.0503 15.4497C8.7375 14.137 8 12.3565 8 10.5H5H2C2 13.9478 3.36964 17.2544 5.80761 19.6924L7.92893 17.5711ZM5 10.5H8C8 8.64348 8.7375 6.86301 10.0503 5.55025L7.92893 3.42893L5.80761 1.30761C3.36964 3.74558 2 7.05219 2 10.5H5ZM7.92893 3.42893L10.0503 5.55025C11.363 4.2375 13.1435 3.5 15 3.5V0.5V-2.5C11.5522 -2.5 8.24558 -1.13036 5.80761 1.30761L7.92893 3.42893ZM15 0.5V3.5C16.8565 3.5 18.637 4.2375 19.9497 5.55025L22.0711 3.42893L24.1924 1.30761C21.7544 -1.13036 18.4478 -2.5 15 -2.5V0.5ZM22.0711 3.42893L19.9497 5.55025C21.2625 6.86301 22 8.64348 22 10.5H25H28C28 7.05219 26.6304 3.74558 24.1924 1.30761L22.0711 3.42893ZM25 10.5H22C22 12.3565 21.2625 14.137 19.9497 15.4497L22.0711 17.5711L24.1924 19.6924C26.6304 17.2544 28 13.9478 28 10.5H25ZM22.0711 17.5711L19.9497 15.4497C18.637 16.7625 16.8565 17.5 15 17.5V20.5V23.5C18.4478 23.5 21.7544 22.1304 24.1924 19.6924L22.0711 17.5711ZM27.5 33H30.5V29.25H27.5H24.5V33H27.5ZM27.5 29.25H30.5C30.5 27.4598 29.7888 25.7429 28.523 24.477L26.4017 26.5983L24.2803 28.7197C24.421 28.8603 24.5 29.0511 24.5 29.25H27.5ZM26.4017 26.5983L28.523 24.477C27.2571 23.2112 25.5402 22.5 23.75 22.5V25.5V28.5C23.9489 28.5 24.1397 28.579 24.2803 28.7197L26.4017 26.5983ZM23.75 25.5V22.5H6.25V25.5V28.5H23.75V25.5ZM6.25 25.5V22.5C4.45979 22.5 2.7429 23.2112 1.47703 24.477L3.59835 26.5983L5.71967 28.7197C5.86032 28.579 6.05109 28.5 6.25 28.5V25.5ZM3.59835 26.5983L1.47703 24.477C0.211158 25.7429 -0.5 27.4598 -0.5 29.25H2.5H5.5C5.5 29.0511 5.57902 28.8603 5.71967 28.7197L3.59835 26.5983ZM2.5 29.25H-0.5V33H2.5H5.5V29.25H2.5ZM2.5 33H-0.5C-0.5 32.5359 -0.315626 32.0908 0.0125629 31.7626L2.13388 33.8839L4.2552 36.0052C5.05223 35.2082 5.5 34.1272 5.5 33H2.5ZM2.13388 33.8839L0.0125629 31.7626C0.340755 31.4344 0.785876 31.25 1.25 31.25V34.25V37.25C2.37716 37.25 3.45817 36.8022 4.2552 36.0052L2.13388 33.8839ZM1.25 34.25V31.25C1.71412 31.25 2.15924 31.4344 2.48744 31.7626L0.366117 33.8839L-1.7552 36.0052C-0.95817 36.8022 0.122835 37.25 1.25 37.25V34.25ZM0.366117 33.8839L2.48744 31.7626C2.81563 32.0908 3 32.5359 3 33H0H-3C-3 34.1272 -2.55223 35.2082 -1.7552 36.0052L0.366117 33.8839ZM0 33H3V29.25H0H-3V33H0ZM0 29.25H3C3 28.388 3.34241 27.5614 3.9519 26.9519L1.83058 24.8306L-0.290738 22.7093C-2.02545 24.444 -3 26.7967 -3 29.25H0ZM1.83058 24.8306L3.9519 26.9519C4.5614 26.3424 5.38805 26 6.25 26V23V20C3.79675 20 1.44397 20.9745 -0.290738 22.7093L1.83058 24.8306ZM6.25 23V26H23.75V23V20H6.25V23ZM23.75 23V26C24.612 26 25.4386 26.3424 26.0481 26.9519L28.1694 24.8306L30.2907 22.7093C28.556 20.9745 26.2033 20 23.75 20V23ZM28.1694 24.8306L26.0481 26.9519C26.6576 27.5614 27 28.388 27 29.25H30H33C33 26.7967 32.0255 24.444 30.2907 22.7093L28.1694 24.8306ZM30 29.25H27V33H30H33V29.25H30ZM30 33H27C27 32.5359 27.1844 32.0908 27.5126 31.7626L29.6339 33.8839L31.7552 36.0052C32.5522 35.2082 33 34.1272 33 33H30ZM29.6339 33.8839L27.5126 31.7626C27.8408 31.4344 28.2859 31.25 28.75 31.25V34.25V37.25C29.8772 37.25 30.9582 36.8022 31.7552 36.0052L29.6339 33.8839ZM28.75 34.25V31.25C29.2141 31.25 29.6592 31.4344 29.9874 31.7626L27.8661 33.8839L25.7448 36.0052C26.5418 36.8022 27.6228 37.25 28.75 37.25V34.25ZM27.8661 33.8839L29.9874 31.7626C30.3156 32.0908 30.5 32.5359 30.5 33H27.5H24.5C24.5 34.1272 24.9478 35.2082 25.7448 36.0052L27.8661 33.8839Z" fill="#AE0620" mask="url(#path-1-inside-1_2332_51)"/>
</svg>
