<svg width="33" height="31" viewBox="0 0 33 31" fill="none" xmlns="http://www.w3.org/2000/svg">
<path d="M22.7157 21.151L23.4749 20.3962L21.7121 18.6234L20.9531 19.3782L22.7157 21.151ZM26.0243 20.08L29.2084 21.811L30.4024 19.6147L27.2183 17.8837L26.0243 20.08ZM29.8214 25.2514L27.4538 27.6055L29.2164 29.3784L31.5841 27.0242L29.8214 25.2514ZM26.0111 28.3635C23.5946 28.5887 17.3426 28.388 10.5736 21.6574L8.81082 23.4302C16.1976 30.775 23.2281 31.1337 26.2431 30.8527L26.0111 28.3635ZM10.5736 21.6574C4.12125 15.2417 3.05243 9.84562 2.91938 7.50462L0.423418 7.64647C0.590852 10.5929 1.9143 16.5729 8.81082 23.4302L10.5736 21.6574ZM12.8658 11.3569L13.3438 10.8816L11.5811 9.10879L11.1031 9.58409L12.8658 11.3569ZM13.7243 4.82289L11.6227 2.01555L9.62135 3.51379L11.7229 6.32114L13.7243 4.82289ZM4.5543 1.40452L1.9383 4.00567L3.70104 5.77847L6.31703 3.17732L4.5543 1.40452ZM11.9844 10.4705C11.1031 9.58409 11.1019 9.58527 11.1007 9.58647C11.1003 9.58687 11.0991 9.58809 11.0983 9.5889C11.0966 9.59055 11.095 9.59222 11.0933 9.59394C11.0899 9.59739 11.0864 9.60097 11.0828 9.6047C11.0756 9.61219 11.0679 9.62029 11.0599 9.62902C11.0438 9.64647 11.0262 9.66644 11.0073 9.68899C10.9695 9.73407 10.9267 9.78959 10.8817 9.856C10.7915 9.98915 10.6932 10.1652 10.6097 10.3866C10.4395 10.8384 10.3483 11.4339 10.4627 12.1713C10.6864 13.6134 11.6796 15.5184 14.2238 18.048L15.9864 16.2752C13.6056 13.9079 13.0384 12.4672 12.9331 11.788C12.8829 11.4648 12.9349 11.3057 12.9493 11.2681C12.9579 11.2448 12.9621 11.2424 12.9514 11.2583C12.9461 11.2661 12.9373 11.2783 12.9234 11.2947C12.9166 11.3029 12.9084 11.3122 12.8989 11.3226C12.8941 11.3277 12.8891 11.3332 12.8834 11.3389C12.8808 11.3418 12.8779 11.3447 12.8749 11.3477C12.8734 11.3492 12.8719 11.3507 12.8704 11.3522C12.8698 11.353 12.8686 11.3542 12.8681 11.3546C12.8669 11.3557 12.8658 11.3569 11.9844 10.4705ZM14.2238 18.048C16.7688 20.5785 18.6826 21.5634 20.1271 21.785C20.8653 21.8982 21.4604 21.8079 21.9119 21.6397C22.1333 21.5572 22.3096 21.46 22.4429 21.3707C22.5096 21.326 22.5653 21.2835 22.6104 21.246C22.6331 21.2274 22.6531 21.2099 22.6706 21.1939C22.6794 21.1859 22.6876 21.1784 22.6951 21.1712C22.6989 21.1675 22.7024 21.164 22.7059 21.1607C22.7076 21.159 22.7093 21.1574 22.7109 21.1557C22.7118 21.1549 22.7131 21.1537 22.7134 21.1534C22.7146 21.1522 22.7158 21.151 21.8344 20.2645C20.9531 19.3782 20.9543 19.377 20.9554 19.3759C20.9558 19.3755 20.9569 19.3744 20.9578 19.3735C20.9593 19.372 20.9608 19.3705 20.9623 19.369C20.9654 19.3662 20.9683 19.3634 20.9711 19.3605C20.9769 19.355 20.9824 19.35 20.9876 19.3452C20.9979 19.3359 21.0073 19.3277 21.0156 19.321C21.0319 19.3074 21.0441 19.2987 21.0516 19.2935C21.0671 19.2832 21.0639 19.2879 21.0393 19.297C20.9984 19.3122 20.8349 19.3644 20.5063 19.3139C19.8174 19.2084 18.3666 18.6417 15.9864 16.2752L14.2238 18.048ZM11.6227 2.01555C9.92382 -0.253764 6.58318 -0.612847 4.5543 1.40452L6.31703 3.17732C7.20317 2.2962 8.77697 2.38589 9.62135 3.51379L11.6227 2.01555ZM2.91938 7.50462C2.8866 6.92777 3.15117 6.3252 3.70104 5.77847L1.9383 4.00567C1.04277 4.89612 0.338735 6.15662 0.423418 7.64647L2.91938 7.50462ZM27.4538 27.6055C26.9958 28.061 26.5048 28.3175 26.0111 28.3635L26.2431 30.8527C27.4674 30.7385 28.4706 30.12 29.2164 29.3784L27.4538 27.6055ZM13.3438 10.8816C14.9846 9.25004 15.1066 6.66937 13.7243 4.82289L11.7229 6.32114C12.3954 7.21944 12.2954 8.3985 11.5811 9.10879L13.3438 10.8816ZM29.2084 21.811C30.5714 22.552 30.7838 24.2944 29.8214 25.2514L31.5841 27.0242C33.8179 24.803 33.1291 21.0969 30.4024 19.6147L29.2084 21.811ZM23.4749 20.3962C24.1149 19.7599 25.1451 19.6022 26.0243 20.08L27.2183 17.8837C25.4123 16.9019 23.1709 17.173 21.7121 18.6234L23.4749 20.3962Z" fill="#AE0620"/>
</svg>
