<svg width="34" height="26" viewBox="0 0 34 26" fill="none" xmlns="http://www.w3.org/2000/svg">
<path fill-rule="evenodd" clip-rule="evenodd" d="M19.5441 15.7359C19.8389 15.6828 20.1379 15.6562 20.4375 15.6562C21.0675 15.6562 21.6703 15.7728 22.2256 15.9855L24.435 12.8438L24.5194 12.8916C23.7003 11.9763 23.2482 10.7907 23.25 9.5625C23.25 6.80109 25.4886 4.5625 28.25 4.5625C31.0114 4.5625 33.25 6.80109 33.25 9.5625C33.25 12.3239 31.0114 14.5625 28.25 14.5625C27.6763 14.5625 27.125 14.4658 26.6117 14.288L24.3758 17.5752C25.0653 18.454 25.4393 19.5392 25.4375 20.6562C25.4375 23.4177 23.1989 25.6562 20.4375 25.6562C17.6761 25.6562 15.4375 23.4177 15.4375 20.6562C15.4375 19.1302 16.1213 17.7638 17.1991 16.8466L13.9547 10.3966C13.62 10.4656 13.2792 10.5002 12.9375 10.5C12.5072 10.5003 12.0787 10.4452 11.6625 10.3359L9.36312 14.3875C10.3141 15.2977 10.9062 16.5797 10.9062 18C10.9062 20.7614 8.66766 23 5.90625 23C3.14484 23 0.90625 20.7614 0.90625 18C0.90625 15.2386 3.14484 13 5.90625 13C6.32109 13 6.72406 13.0505 7.10937 13.1456L9.42328 9.05656C8.50594 8.15047 7.9375 6.89172 7.9375 5.5C7.9375 2.73859 10.1761 0.5 12.9375 0.5C15.6989 0.5 17.9375 2.73859 17.9375 5.5C17.9375 6.99422 17.282 8.33531 16.2431 9.25156L19.5441 15.7359ZM28.25 12.0625C29.6308 12.0625 30.75 10.9433 30.75 9.5625C30.75 8.18172 29.6308 7.0625 28.25 7.0625C26.8692 7.0625 25.75 8.18172 25.75 9.5625C25.75 10.9433 26.8692 12.0625 28.25 12.0625ZM5.90625 20.5C7.28703 20.5 8.40625 19.3808 8.40625 18C8.40625 16.6192 7.28703 15.5 5.90625 15.5C4.52547 15.5 3.40625 16.6192 3.40625 18C3.40625 19.3808 4.52547 20.5 5.90625 20.5ZM12.9375 8C14.3183 8 15.4375 6.88078 15.4375 5.5C15.4375 4.11922 14.3183 3 12.9375 3C11.5567 3 10.4375 4.11922 10.4375 5.5C10.4375 6.88078 11.5567 8 12.9375 8ZM20.4375 23.1562C21.8183 23.1562 22.9375 22.037 22.9375 20.6562C22.9375 19.2755 21.8183 18.1562 20.4375 18.1562C19.0567 18.1562 17.9375 19.2755 17.9375 20.6562C17.9375 22.037 19.0567 23.1562 20.4375 23.1562Z" fill="#FFFAFA"/>
</svg>
