<svg width="1080" height="594" viewBox="0 0 1080 594" fill="none" xmlns="http://www.w3.org/2000/svg">
<circle cx="666" cy="392" r="179.5" stroke="#FF96A6" stroke-opacity="0.5"/>
<path d="M607 108.5C706.325 108.5 796.224 135.676 861.278 179.588C926.335 223.501 966.5 284.114 966.5 351C966.5 417.886 926.335 478.499 861.278 522.412C796.224 566.324 706.325 593.5 607 593.5C507.675 593.5 417.776 566.324 352.722 522.412C287.665 478.499 247.5 417.886 247.5 351C247.5 284.114 287.665 223.501 352.722 179.588C417.776 135.676 507.675 108.5 607 108.5Z" stroke="#FF96A6" stroke-opacity="0.5"/>
<path d="M540 0.5C689.049 0.5 823.963 33.7292 921.597 87.4277C1019.25 141.136 1079.5 215.252 1079.5 297C1079.5 378.748 1019.25 452.864 921.597 506.572C823.963 560.271 689.049 593.5 540 593.5C390.951 593.5 256.037 560.271 158.403 506.572C60.7516 452.864 0.5 378.748 0.5 297C0.5 215.252 60.7516 141.136 158.403 87.4277C256.037 33.7292 390.951 0.5 540 0.5Z" stroke="#FF96A6" stroke-opacity="0.5"/>
</svg>
