<svg width="1080" height="385" viewBox="0 0 1080 385" fill="none" xmlns="http://www.w3.org/2000/svg">
<path d="M237 93C237 191.859 317.141 272 416 272C514.859 272 595 191.859 595 93C595 -5.85898 514.859 -86 416 -86V-87C515.411 -87 596 -6.41125 596 93C596 192.411 515.411 273 416 273C316.589 273 236 192.411 236 93C236 -6.41125 316.589 -87 416 -87V-86C317.141 -86 237 -5.85898 237 93Z" fill="#FF96A6" fill-opacity="0.5"/>
<path d="M114 100C114 166.67 154.034 227.145 219.001 270.998C283.962 314.847 373.761 342 473 342C572.239 342 662.038 314.847 726.999 270.998C791.966 227.145 832 166.67 832 100C832 33.33 791.966 -27.1454 726.999 -70.998C662.038 -114.847 572.239 -142 473 -142V-143C671.823 -143 833 -34.2052 833 100C833 234.205 671.823 343 473 343C274.177 343 113 234.205 113 100C113 -34.2052 274.177 -143 473 -143V-142C373.761 -142 283.962 -114.847 219.001 -70.998C154.034 -27.1454 114 33.33 114 100Z" fill="#FF96A6" fill-opacity="0.5"/>
<path d="M1 88C1 169.481 61.0617 243.464 158.645 297.135C256.191 350.785 391.019 384 540 384C688.981 384 823.809 350.785 921.355 297.135C1018.94 243.464 1079 169.481 1079 88C1079 6.51895 1018.94 -67.4642 921.355 -121.135C823.809 -174.785 688.981 -208 540 -208V-209C838.234 -209 1080 -76.0286 1080 88C1080 252.029 838.234 385 540 385C241.766 385 0 252.029 0 88C0 -76.0286 241.766 -209 540 -209V-208C391.019 -208 256.191 -174.785 158.645 -121.135C61.0617 -67.4642 1 6.51895 1 88Z" fill="#FF96A6" fill-opacity="0.5"/>
</svg>
