<svg width="20" height="20" viewBox="0 0 20 20" fill="none" xmlns="http://www.w3.org/2000/svg">
<path d="M13.9513 12.8309L13.4452 13.3636C13.4452 13.3636 12.2423 14.63 8.95899 11.1732C5.67568 7.7165 6.87855 6.4501 6.87855 6.4501L7.19721 6.11458C7.98232 5.28806 8.05632 3.96108 7.37132 2.99233L5.97028 1.01068C5.12253 -0.188334 3.48439 -0.346723 2.51272 0.676268L0.76872 2.51238C0.28692 3.01963 -0.0359464 3.67717 0.00320911 4.40661C0.103376 6.27274 0.900786 10.2879 5.35039 14.9725C10.069 19.9403 14.4964 20.1377 16.307 19.959C16.8796 19.9025 17.3776 19.5937 17.779 19.1711L19.3574 17.5095C20.4229 16.3877 20.1224 14.4646 18.7592 13.68L16.6364 12.4581C15.7413 11.943 14.6509 12.0943 13.9513 12.8309Z" fill="#AE0620"/>
</svg>
