<svg width="93" height="14" viewBox="0 0 93 14" fill="none" xmlns="http://www.w3.org/2000/svg">
<path d="M1.23105 10.04C0.531055 9.29 0.181055 8.36 0.181055 7.25C0.181055 6.14 0.531055 5.215 1.23105 4.475C1.93105 3.725 2.78105 3.35 3.78105 3.35C4.41105 3.35 4.94606 3.47 5.38606 3.71C5.82606 3.95 6.14106 4.205 6.33105 4.475L6.46606 4.7H6.48105V0.499999H7.68106V11H6.48105V9.8H6.46606L6.33105 10.01C6.15105 10.28 5.84105 10.54 5.40105 10.79C4.96105 11.03 4.42105 11.15 3.78105 11.15C2.78105 11.15 1.93105 10.78 1.23105 10.04ZM2.10105 5.255C1.62105 5.775 1.38105 6.44 1.38105 7.25C1.38105 8.06 1.62105 8.725 2.10105 9.245C2.59105 9.765 3.20105 10.025 3.93106 10.025C4.66105 10.025 5.26605 9.765 5.74605 9.245C6.23605 8.725 6.48105 8.06 6.48105 7.25C6.48105 6.44 6.23605 5.775 5.74605 5.255C5.26605 4.735 4.66105 4.475 3.93106 4.475C3.20105 4.475 2.59105 4.735 2.10105 5.255ZM10.4313 10.04C9.70133 9.3 9.33633 8.37 9.33633 7.25C9.33633 6.13 9.70133 5.2 10.4313 4.46C11.1613 3.72 12.0713 3.35 13.1613 3.35C14.2513 3.35 15.1613 3.715 15.8913 4.445C16.6213 5.175 16.9863 6.085 16.9863 7.175V7.625H10.5363C10.6163 8.325 10.9013 8.9 11.3913 9.35C11.8813 9.8 12.4713 10.025 13.1613 10.025C13.9013 10.025 14.5363 9.8 15.0663 9.35C15.3063 9.15 15.4963 8.925 15.6363 8.675H16.8363C16.6563 9.145 16.4013 9.56 16.0713 9.92C15.2913 10.74 14.3213 11.15 13.1613 11.15C12.0713 11.15 11.1613 10.78 10.4313 10.04ZM10.5663 6.575H15.7113C15.6213 5.985 15.3463 5.49 14.8863 5.09C14.4263 4.68 13.8513 4.475 13.1613 4.475C12.4713 4.475 11.8913 4.68 11.4213 5.09C10.9513 5.49 10.6663 5.985 10.5663 6.575ZM17.884 3.5H19.159L20.884 9.875H22.159L23.884 3.5H25.159L23.059 11H19.984L17.884 3.5ZM27.1598 10.04C26.4298 9.3 26.0648 8.37 26.0648 7.25C26.0648 6.13 26.4298 5.2 27.1598 4.46C27.8898 3.72 28.7998 3.35 29.8898 3.35C30.9798 3.35 31.8898 3.715 32.6198 4.445C33.3498 5.175 33.7148 6.085 33.7148 7.175V7.625H27.2648C27.3448 8.325 27.6298 8.9 28.1198 9.35C28.6098 9.8 29.1998 10.025 29.8898 10.025C30.6298 10.025 31.2648 9.8 31.7948 9.35C32.0348 9.15 32.2248 8.925 32.3648 8.675H33.5648C33.3848 9.145 33.1298 9.56 32.7998 9.92C32.0198 10.74 31.0498 11.15 29.8898 11.15C28.7998 11.15 27.8898 10.78 27.1598 10.04ZM27.2948 6.575H32.4398C32.3498 5.985 32.0748 5.49 31.6148 5.09C31.1548 4.68 30.5798 4.475 29.8898 4.475C29.1998 4.475 28.6198 4.68 28.1498 5.09C27.6798 5.49 27.3948 5.985 27.2948 6.575ZM35.3625 11V0.499999H36.5625V9.875H38.2875V11H35.3625ZM40.1534 10.04C39.4134 9.3 39.0434 8.37 39.0434 7.25C39.0434 6.13 39.4134 5.2 40.1534 4.46C40.8934 3.72 41.8234 3.35 42.9434 3.35C44.0634 3.35 44.9934 3.72 45.7334 4.46C46.4734 5.2 46.8434 6.13 46.8434 7.25C46.8434 8.37 46.4734 9.3 45.7334 10.04C44.9934 10.78 44.0634 11.15 42.9434 11.15C41.8234 11.15 40.8934 10.78 40.1534 10.04ZM41.0084 5.255C40.4984 5.775 40.2434 6.44 40.2434 7.25C40.2434 8.06 40.4984 8.725 41.0084 9.245C41.5184 9.765 42.1634 10.025 42.9434 10.025C43.7234 10.025 44.3684 9.765 44.8784 9.245C45.3884 8.725 45.6434 8.06 45.6434 7.25C45.6434 6.44 45.3884 5.775 44.8784 5.255C44.3684 4.735 43.7234 4.475 42.9434 4.475C42.1634 4.475 41.5184 4.735 41.0084 5.255ZM48.4875 13.85V3.5H49.6875V4.7H49.7025L49.8525 4.475C50.0225 4.215 50.3275 3.965 50.7675 3.725C51.2075 3.475 51.7475 3.35 52.3875 3.35C53.3875 3.35 54.2375 3.725 54.9375 4.475C55.6375 5.215 55.9875 6.14 55.9875 7.25C55.9875 8.36 55.6375 9.29 54.9375 10.04C54.2375 10.78 53.3875 11.15 52.3875 11.15C51.7475 11.15 51.2025 11.03 50.7525 10.79C50.3125 10.54 50.0125 10.28 49.8525 10.01L49.7025 9.8H49.6875V13.85H48.4875ZM50.4075 5.255C49.9275 5.775 49.6875 6.44 49.6875 7.25C49.6875 8.06 49.9275 8.725 50.4075 9.245C50.8975 9.765 51.5075 10.025 52.2375 10.025C52.9675 10.025 53.5725 9.765 54.0525 9.245C54.5425 8.725 54.7875 8.06 54.7875 7.25C54.7875 6.44 54.5425 5.775 54.0525 5.255C53.5725 4.735 52.9675 4.475 52.2375 4.475C51.5075 4.475 50.8975 4.735 50.4075 5.255ZM57.6428 11V3.5H58.8428V4.625H58.8578C58.9878 4.395 59.1728 4.185 59.4128 3.995C59.9628 3.565 60.5978 3.35 61.3178 3.35C62.0678 3.35 62.6928 3.6 63.1928 4.1C63.4128 4.32 63.5878 4.57 63.7178 4.85H63.7928C63.9428 4.59 64.1528 4.34 64.4228 4.1C65.0028 3.6 65.7178 3.35 66.5678 3.35C67.3778 3.35 68.0428 3.64 68.5628 4.22C69.0828 4.8 69.3428 5.585 69.3428 6.575V11H68.1428V6.65C68.1428 5.95 67.9778 5.415 67.6478 5.045C67.3278 4.665 66.8928 4.475 66.3428 4.475C65.7428 4.475 65.2178 4.705 64.7678 5.165C64.3178 5.625 64.0928 6.17 64.0928 6.8V11H62.8928V6.65C62.8928 5.95 62.7278 5.415 62.3978 5.045C62.0778 4.665 61.6428 4.475 61.0928 4.475C60.4928 4.475 59.9678 4.705 59.5178 5.165C59.0678 5.625 58.8428 6.17 58.8428 6.8V11H57.6428ZM72.0134 10.04C71.2834 9.3 70.9184 8.37 70.9184 7.25C70.9184 6.13 71.2834 5.2 72.0134 4.46C72.7434 3.72 73.6534 3.35 74.7434 3.35C75.8334 3.35 76.7434 3.715 77.4734 4.445C78.2034 5.175 78.5684 6.085 78.5684 7.175V7.625H72.1184C72.1984 8.325 72.4834 8.9 72.9734 9.35C73.4634 9.8 74.0534 10.025 74.7434 10.025C75.4834 10.025 76.1184 9.8 76.6484 9.35C76.8884 9.15 77.0784 8.925 77.2184 8.675H78.4184C78.2384 9.145 77.9834 9.56 77.6534 9.92C76.8734 10.74 75.9034 11.15 74.7434 11.15C73.6534 11.15 72.7434 10.78 72.0134 10.04ZM72.1484 6.575H77.2934C77.2034 5.985 76.9284 5.49 76.4684 5.09C76.0084 4.68 75.4334 4.475 74.7434 4.475C74.0534 4.475 73.4734 4.68 73.0034 5.09C72.5334 5.49 72.2484 5.985 72.1484 6.575ZM80.216 11V3.5H81.416V4.625H81.431C81.581 4.385 81.776 4.175 82.016 3.995C82.566 3.565 83.216 3.35 83.966 3.35C84.876 3.35 85.601 3.64 86.141 4.22C86.691 4.79 86.966 5.575 86.966 6.575V11H85.766V6.65C85.766 5.93 85.586 5.39 85.226 5.03C84.866 4.66 84.371 4.475 83.741 4.475C83.051 4.475 82.491 4.705 82.061 5.165C81.631 5.615 81.416 6.21 81.416 6.95V11H80.216ZM88.3154 4.625V3.5H89.2904V1.85H90.4904V3.5H92.8904V4.625H90.4904V9.875H92.9654V11H89.2904V4.625H88.3154Z" fill="#050301"/>
</svg>
