<svg width="36" height="36" viewBox="0 0 36 36" fill="none" xmlns="http://www.w3.org/2000/svg">
<path d="M18.25 34.5C27.2246 34.5 34.5 27.2246 34.5 18.25C34.5 9.27537 27.2246 2 18.25 2C9.27537 2 2 9.27537 2 18.25C2 27.2246 9.27537 34.5 18.25 34.5Z" stroke="#FFFAFA" stroke-width="3" stroke-linecap="round" stroke-linejoin="round"/>
<path d="M10.75 19.75C11.3023 19.75 11.75 20.1977 11.75 20.75C11.75 21.3023 11.3023 21.75 10.75 21.75C10.1977 21.75 9.75 21.3023 9.75 20.75C9.75 20.1977 10.1977 19.75 10.75 19.75Z" fill="#FFFAFA" stroke="#FFFAFA" stroke-width="3"/>
<path d="M25.75 19.75C26.3023 19.75 26.75 20.1977 26.75 20.75C26.75 21.3023 26.3023 21.75 25.75 21.75C25.1977 21.75 24.75 21.3023 24.75 20.75C24.75 20.1977 25.1977 19.75 25.75 19.75Z" fill="#FFFAFA" stroke="#FFFAFA" stroke-width="3"/>
<path d="M15.125 27C15.125 27 16.375 28.25 18.25 28.25C20.125 28.25 21.375 27 21.375 27" stroke="#FFFAFA" stroke-width="3" stroke-linecap="round" stroke-linejoin="round"/>
</svg>
