<svg width="37" height="27" viewBox="0 0 37 27" fill="none" xmlns="http://www.w3.org/2000/svg">
<path d="M35.3333 6.71366H32M32 6.71366H30.3333C27 3.38329 22 0.0466426 18.6667 3.38033M32 6.71366V20.0469M18.6667 3.38033L13.6659 8.38304C13.5337 8.51536 13.4675 8.58151 13.4143 8.64008C12.2583 9.91189 12.2588 11.8541 13.4154 13.1254C13.4687 13.1839 13.535 13.2501 13.6672 13.3822C13.7994 13.5144 13.8656 13.5806 13.9242 13.6337C15.1957 14.7892 17.1373 14.7891 18.4085 13.6331C18.467 13.5799 18.5332 13.5137 18.6653 13.3816L20.3327 11.7142M18.6667 3.38033C15.3333 0.0466426 10.3333 3.38341 7 6.71376H5.33333M32 20.0469V25.0469H35.3333M32 20.0469H27.286M5.33333 6.71376H2M5.33333 6.71376V20.0469M5.33333 20.0469H8.66667L9.30328 21.3202C10.1594 23.0324 12.5181 23.2451 13.6667 21.7136C14.5754 22.6224 15.0298 23.0767 15.52 23.3197C16.4525 23.7817 17.5475 23.7817 18.48 23.3197C18.9702 23.0767 19.4247 22.6224 20.3333 21.7136L21.1667 22.5469C21.2993 22.6796 21.3658 22.7461 21.4245 22.7996C22.696 23.9552 24.6373 23.9552 25.9088 22.7996C25.9675 22.7461 26.034 22.6796 26.1667 22.5469C26.2993 22.4142 26.3658 22.3479 26.4192 22.2891C27.5748 21.0177 27.5748 19.0762 26.4192 17.8049C26.3658 17.7461 26.2993 17.6797 26.1667 17.5469L23.6667 15.0469M5.33333 20.0469V25.0469H2" stroke="#FFFAFA" stroke-width="3" stroke-linecap="round" stroke-linejoin="round"/>
</svg>
