<svg width="34" height="40" viewBox="0 0 34 40" fill="none" xmlns="http://www.w3.org/2000/svg">
<path d="M18.4375 16.0781C17.7187 17.7969 15.75 18.5938 14.0312 17.875C12.3125 17.1562 11.5156 15.1875 12.2343 13.4688C12.9531 11.75 14.9218 10.9531 16.6406 11.6719C18.3593 12.3906 19.1562 14.3594 18.4375 16.0781ZM33.5468 24.1562C33.5468 24.8281 33 25.375 32.3281 25.375H30.3437V29.5625C30.3437 32.8125 27.7031 35.4531 24.4531 35.4531H22.1093V39.6875H6.17185V27.0156C-0.312526 21.9062 -1.43753 12.5156 3.65622 6.01562C6.48435 2.42188 10.8125 0.3125 15.3906 0.3125C22.1718 0.3125 28.4218 5.40625 29.7187 11C30.0156 12.25 30.3437 15.5 30.3437 15.5L33.4531 23.6875C33.5156 23.8281 33.5468 23.9844 33.5468 24.1562ZM21.7187 13.7188L23.625 12.5312L22.8281 10.5781L20.625 11.0781C20.2031 10.4844 19.6875 9.95312 19.0937 9.53125L19.6093 7.34375L17.6562 6.53125L16.4531 8.4375C15.7343 8.3125 14.9843 8.3125 14.2656 8.42188L13.0937 6.48438L11.125 7.28125L11.625 9.46875C11.0312 9.89062 10.5 10.4062 10.0781 11L7.8906 10.4844L7.06247 12.4375L8.96872 13.6406C8.84372 14.3594 8.84372 15.1094 8.9531 15.8281L7.04685 17.0312L7.84372 18.9844L10.0312 18.4844C10.4531 19.0781 10.9687 19.6094 11.5625 20.0312L11.0468 22.2188L13 23.0312L14.2031 21.125C14.9218 21.25 15.6718 21.25 16.3906 21.1406L17.5781 23.0469L19.5312 22.25L19.0312 20.0469C19.625 19.625 20.1562 19.1094 20.5781 18.5156L22.7656 19.0312L23.5781 17.0781L21.6718 15.875C21.8437 15.1719 21.8437 14.4375 21.7187 13.7188Z" fill="#FFFAFA"/>
</svg>
