<svg width="34" height="33" viewBox="0 0 34 33" fill="none" xmlns="http://www.w3.org/2000/svg">
<path d="M8.66667 19.7432H25.3333M8.66667 19.7432V15.7432C8.66667 14.8097 8.66667 14.3431 8.84832 13.9866C9.00812 13.6729 9.26308 13.4179 9.57668 13.2582C9.9332 13.0766 10.3999 13.0766 11.3333 13.0766H22.6667C23.6002 13.0766 24.0668 13.0766 24.4233 13.2582C24.737 13.4179 24.9918 13.6729 25.1517 13.9866C25.3333 14.3431 25.3333 14.8097 25.3333 15.7432V19.7432M8.66667 19.7432V26.4099V31.4099M25.3333 19.7432V26.4099V31.4099M27.5777 6.69869L20.5777 3.19869C19.2658 2.54277 18.61 2.21482 17.922 2.08574C17.3127 1.97142 16.6873 1.97142 16.078 2.08574C15.39 2.21482 14.7342 2.54277 13.4223 3.19869L6.42228 6.69869C4.81698 7.50134 4.01433 7.90267 3.42792 8.5014C2.90933 9.03089 2.51493 9.66902 2.27327 10.3696C2 11.1619 2 12.0593 2 13.8541V28.7432C2 29.6766 2 30.1432 2.18165 30.4999C2.34145 30.8134 2.59642 31.0684 2.91002 31.2282C3.26653 31.4099 3.73325 31.4099 4.66667 31.4099H29.3333C30.2668 31.4099 30.7335 31.4099 31.09 31.2282C31.4037 31.0684 31.6585 30.8134 31.8183 30.4999C32 30.1432 32 29.6766 32 28.7432V13.8541C32 12.0593 32 11.1619 31.7267 10.3696C31.485 9.66902 31.0907 9.03089 30.5722 8.5014C29.9857 7.90267 29.183 7.50134 27.5777 6.69869Z" stroke="#8F0D21" stroke-width="3" stroke-linecap="round" stroke-linejoin="round"/>
</svg>
