<svg width="29" height="59" viewBox="0 0 29 59" fill="none" xmlns="http://www.w3.org/2000/svg">
<path d="M15.8165 26.9697L11.7534 29.335L13.3952 30.9253L17.3213 28.4143L15.8165 26.9697Z" fill="#8F0D21"/>
<path d="M28.9991 15.7323L11.29 28.1384C11.29 22.4448 11.2123 10.734 11.2123 9.4394C11.2123 7.82122 10.9807 6.11314 12.682 4.40506C14.0431 3.03859 16.4971 0.898991 17.5539 0L28.9991 15.7323Z" fill="#AE0620"/>
<path d="M0.743325 43.306L17.6648 29.4941C18.0064 35.1738 18.7867 46.8498 18.8644 48.1412C18.9615 49.7555 19.295 51.4406 17.7003 53.2825C16.4246 54.756 14.105 57.0894 13.1046 58.0719L0.743325 43.306Z" fill="#AE0620"/>
</svg>
