<svg width="94" height="87" viewBox="0 0 94 87" fill="none" xmlns="http://www.w3.org/2000/svg">
<path d="M16.0469 52.4556H78.1768C79.6787 52.4558 81.0133 53.4142 81.4932 54.8374L90.0293 80.1597C90.7937 82.4281 89.1057 84.7778 86.7119 84.7778H7.25195C4.84469 84.7777 3.15654 82.4035 3.94629 80.1294L12.7402 54.8071C13.2292 53.3993 14.5565 52.4556 16.0469 52.4556Z" fill="white" stroke="#AE0620" stroke-width="3"/>
<mask id="path-2-inside-1_2311_244" fill="white">
<path d="M11.7681 10.415C11.7681 4.89218 16.2452 0.415039 21.7681 0.415039H72.4882C78.011 0.415039 82.4882 4.89219 82.4882 10.415V53.2194H11.7681V10.415Z"/>
</mask>
<path d="M8.76807 10.415C8.76807 3.23534 14.5884 -2.58496 21.7681 -2.58496H72.4882C79.6679 -2.58496 85.4882 3.23534 85.4882 10.415H79.4882C79.4882 6.54905 76.3541 3.41504 72.4882 3.41504H21.7681C17.9021 3.41504 14.7681 6.54905 14.7681 10.415H8.76807ZM82.4882 53.2194H11.7681H82.4882ZM8.76807 53.2194V10.415C8.76807 3.23534 14.5884 -2.58496 21.7681 -2.58496V3.41504C17.9021 3.41504 14.7681 6.54905 14.7681 10.415V53.2194H8.76807ZM72.4882 -2.58496C79.6679 -2.58496 85.4882 3.23534 85.4882 10.415V53.2194H79.4882V10.415C79.4882 6.54905 76.3541 3.41504 72.4882 3.41504V-2.58496Z" fill="#AE0620" mask="url(#path-2-inside-1_2311_244)"/>
<rect x="18.9849" y="58.9282" width="7.21634" height="2.14072" rx="1.07036" fill="#AE0620"/>
<rect x="15.377" y="71.7725" width="5.77307" height="2.14072" rx="1.07036" fill="#AE0620"/>
<rect x="31.9746" y="71.7725" width="17.3192" height="2.14072" rx="1.07036" fill="#AE0620"/>
<rect x="30.5312" y="58.9282" width="7.21634" height="2.14072" rx="1.07036" fill="#AE0620"/>
<rect x="42.0767" y="58.9282" width="7.21634" height="2.14072" rx="1.07036" fill="#AE0620"/>
<rect x="53.6235" y="58.9282" width="7.21634" height="2.14072" rx="1.07036" fill="#AE0620"/>
<rect x="65.1694" y="58.9282" width="7.21634" height="2.14072" rx="1.07036" fill="#AE0620"/>
<rect x="16.8203" y="65.3501" width="7.21634" height="2.14072" rx="1.07036" fill="#AE0620"/>
<rect x="28.3662" y="65.3501" width="7.21634" height="2.14072" rx="1.07036" fill="#AE0620"/>
<rect x="39.9126" y="65.3501" width="7.21634" height="2.14072" rx="1.07036" fill="#AE0620"/>
<rect x="51.4585" y="65.3501" width="7.21634" height="2.14072" rx="1.07036" fill="#AE0620"/>
<rect x="63.0044" y="65.3501" width="7.21634" height="2.14072" rx="1.07036" fill="#AE0620"/>
<rect x="57.9536" y="71.7725" width="7.21634" height="2.14072" rx="1.07036" fill="#AE0620"/>
<rect x="69.499" y="71.7725" width="7.21634" height="2.14072" rx="1.07036" fill="#AE0620"/>
</svg>
